<?xml version="1.0" encoding="UTF-8"?>
<svg width="24" height="24" viewBox="0 0 24 24" xmlns="http://www.w3.org/2000/svg">
    <path fill="#34A853" d="M12 1c-4.418 0-8 3.582-8 8 0 4.86 6.604 13.027 7.061 13.607.453.574 1.425.574 1.878 0C13.396 22.027 20 13.86 20 9c0-4.418-3.582-8-8-8z"/>
    <path fill="#FBBC05" d="M12 1c-4.418 0-8 3.582-8 8 0 2.013.604 4.095 1.63 6.173L12 7.6V1z"/>
    <path fill="#4285F4" d="M12 1v6.6l6.37 7.573A11.76 11.76 0 0 0 20 9c0-4.418-3.582-8-8-8z"/>
    <circle cx="12" cy="9" r="3" fill="#EA4335"/>
</svg>
