<svg xmlns="http://www.w3.org/2000/svg" viewBox="0 0 18 18" aria-hidden="true" focusable="false">
  <g fill="none" fill-rule="evenodd">
    <path d="M17.64 9.2045c0-.638-.0573-1.252-.1636-1.838H9v3.476h4.844c-.209 1.125-.843 2.08-1.797 2.72v2.258h2.908c1.702-1.567 2.685-3.877 2.685-6.616z" fill="#4285F4"/>
    <path d="M9 18c2.43 0 4.467-.806 5.956-2.18l-2.908-2.258c-.806.54-1.837.86-3.048.86-2.344 0-4.329-1.584-5.037-3.71H.957v2.332C2.438 15.983 5.481 18 9 18z" fill="#34A853"/>
    <path d="M3.963 10.712a5.41 5.41 0 0 1 0-3.424V4.956H.957a9 9 0 0 0 0 8.088l3.006-2.332z" fill="#FBBC05"/>
    <path d="M9 3.58c1.32 0 2.505.454 3.438 1.346l2.58-2.58C13.463.891 11.426 0 9 0 5.481 0 2.438 2.017.957 4.956l3.006 2.332C4.67 5.165 6.656 3.58 9 3.58z" fill="#EA4335"/>
  </g>
</svg>
